<svg width="140" height="26" viewBox="0 0 140 26" fill="none" xmlns="http://www.w3.org/2000/svg">
<path d="M0.790799 24.8187V1.34673H6.0828V20.3547H15.3708V24.8187H0.790799ZM24.7207 12.9387L24.1447 15.0987H29.1487L28.6087 12.9387C28.2967 11.7627 27.9727 10.5147 27.6367 9.19473C27.3247 7.87473 27.0127 6.60273 26.7007 5.37873H26.5567C26.2687 6.62673 25.9687 7.91073 25.6567 9.23073C25.3687 10.5267 25.0567 11.7627 24.7207 12.9387ZM16.2247 24.8187L23.5687 1.34673H29.9407L37.2847 24.8187H31.6687L30.2287 19.2387H23.0647L21.6247 24.8187H16.2247ZM39.8494 24.8187V1.34673H45.2854L51.4054 13.0107L53.7094 18.1947H53.8534C53.7574 16.9467 53.6254 15.5547 53.4574 14.0187C53.2894 12.4827 53.2054 11.0187 53.2054 9.62673V1.34673H58.2454V24.8187H52.8094L46.6894 13.1187L44.3854 8.00673H44.2414C44.3614 9.30273 44.4934 10.6947 44.6374 12.1827C44.8054 13.6707 44.8894 15.1107 44.8894 16.5027V24.8187H39.8494ZM63.7908 24.8187V1.34673H70.4148C72.8148 1.34673 74.8908 1.75473 76.6428 2.57073C78.3948 3.38673 79.7508 4.65873 80.7108 6.38673C81.6948 8.09073 82.1868 10.2867 82.1868 12.9747C82.1868 15.6627 81.7068 17.8827 80.7468 19.6347C79.7868 21.3867 78.4428 22.6947 76.7148 23.5587C75.0108 24.3987 73.0068 24.8187 70.7028 24.8187H63.7908ZM69.0828 20.5347H70.0908C71.4348 20.5347 72.5988 20.2947 73.5828 19.8147C74.5908 19.3347 75.3708 18.5427 75.9228 17.4387C76.4748 16.3347 76.7508 14.8467 76.7508 12.9747C76.7508 11.1027 76.4748 9.63873 75.9228 8.58273C75.3708 7.50273 74.5908 6.74673 73.5828 6.31473C72.5988 5.85873 71.4348 5.63073 70.0908 5.63073H69.0828V20.5347ZM86.6424 24.8187V1.34673H91.9344V24.8187H86.6424ZM97.4705 24.8187V1.34673H102.906L109.026 13.0107L111.33 18.1947H111.474C111.378 16.9467 111.246 15.5547 111.078 14.0187C110.91 12.4827 110.826 11.0187 110.826 9.62673V1.34673H115.866V24.8187H110.43L104.31 13.1187L102.006 8.00673H101.862C101.982 9.30273 102.114 10.6947 102.258 12.1827C102.426 13.6707 102.51 15.1107 102.51 16.5027V24.8187H97.4705ZM131.78 25.2507C129.644 25.2507 127.7 24.7947 125.948 23.8827C124.22 22.9707 122.84 21.6267 121.808 19.8507C120.8 18.0507 120.296 15.8427 120.296 13.2267C120.296 10.6347 120.812 8.42673 121.844 6.60273C122.9 4.75473 124.292 3.35073 126.02 2.39073C127.748 1.40673 129.656 0.914728 131.744 0.914728C133.448 0.914728 134.912 1.22673 136.136 1.85073C137.36 2.47473 138.356 3.18273 139.124 3.97473L136.352 7.35873C135.752 6.83073 135.116 6.38673 134.444 6.02673C133.772 5.66673 132.932 5.48673 131.924 5.48673C130.1 5.48673 128.612 6.15873 127.46 7.50273C126.308 8.84673 125.732 10.6947 125.732 13.0467C125.732 15.4467 126.284 17.3187 127.388 18.6627C128.492 20.0067 130.136 20.6787 132.32 20.6787C132.8 20.6787 133.268 20.6187 133.724 20.4987C134.18 20.3787 134.552 20.1987 134.84 19.9587V15.9267H130.952V11.6067H139.52V22.4067C138.704 23.1987 137.612 23.8707 136.244 24.4227C134.9 24.9747 133.412 25.2507 131.78 25.2507Z" fill="white"/>
</svg>
